<svg width="24" height="24" viewBox="0 0 24 24" fill="none" xmlns="http://www.w3.org/2000/svg">
<g id="Frame 8">
<g id="Group 198">
<path id="Ellipse 70" d="M14.7375 8.68749C14.7375 10.1994 13.5119 11.425 12 11.425C10.4881 11.425 9.2625 10.1994 9.2625 8.68749C9.2625 7.17562 10.4881 5.95 12 5.95C13.5119 5.95 14.7375 7.17562 14.7375 8.68749Z" stroke="#1F1F1F" stroke-width="1.4"/>
<path id="Rectangle 2082" d="M8.575 17.6251C8.575 15.7335 10.1084 14.2001 12 14.2001C13.8916 14.2001 15.425 15.7335 15.425 17.6251V19.0001C15.425 20.1323 14.5072 21.0501 13.375 21.0501H10.625C9.49281 21.0501 8.575 20.1323 8.575 19.0001V17.6251Z" stroke="#1F1F1F" stroke-width="1.4"/>
<g id="Subtract">
<mask id="path-3-inside-1_448_113" fill="white">
<path fill-rule="evenodd" clip-rule="evenodd" d="M22.3125 5.93762C22.3125 7.83609 20.7735 9.37511 18.875 9.37511C17.9525 9.37511 17.1149 9.01176 16.4975 8.42036C16.3396 8.2691 16.2571 8.06011 16.2144 7.84562C16.0994 7.26642 15.8679 6.72914 15.5454 6.25921C15.4799 6.16383 15.4375 6.05329 15.4375 5.93762C15.4375 4.03914 16.9765 2.50012 18.875 2.50012C20.7735 2.50012 22.3125 4.03914 22.3125 5.93762ZM16.9844 18.4332C16.9844 18.734 17.1991 19 17.5 19H20.25C21.7688 19 23 17.7688 23 16.25V14.875C23 12.5969 21.1532 10.7501 18.875 10.7501C17.3206 10.7501 15.9671 11.6098 15.2639 12.8797C15.0345 13.294 15.2155 13.7873 15.5481 14.1244C16.4362 15.0245 16.9844 16.2608 16.9844 17.6251V18.4332ZM15.7511 15.9066C15.5151 15.3925 15.1767 14.9352 14.7618 14.5611C14.7618 14.5611 14.7618 14.5611 14.7618 14.5611C14.7618 14.5611 14.7618 14.5611 14.7618 14.5611C15.1766 14.9353 15.5151 15.3925 15.7511 15.9066Z"/>
</mask>
<path d="M14.7618 14.5611L15.6994 13.5215L14.7618 14.5611ZM15.5454 6.25921L14.3911 7.05137L15.5454 6.25921ZM14.7618 14.5611L15.6994 13.5214L14.7618 14.5611ZM14.7618 14.5611L13.3655 14.4585L14.7618 14.5611ZM16.4975 8.42036L15.5291 9.43139L16.4975 8.42036ZM18.875 10.7751C21.5467 10.7751 23.7125 8.60929 23.7125 5.93762H20.9125C20.9125 7.06289 20.0003 7.97511 18.875 7.97511V10.7751ZM15.5291 9.43139C16.3967 10.2624 17.5774 10.7751 18.875 10.7751V7.97511C18.3276 7.97511 17.8332 7.76113 17.4659 7.40934L15.5291 9.43139ZM17.5876 7.57282C17.4347 6.8032 17.1271 6.08986 16.6997 5.46704L14.3911 7.05137C14.6086 7.36842 14.764 7.72963 14.8413 8.11842L17.5876 7.57282ZM18.875 1.10012C16.2033 1.10012 14.0375 3.26594 14.0375 5.93762H16.8375C16.8375 4.81234 17.7497 3.90012 18.875 3.90012V1.10012ZM23.7125 5.93762C23.7125 3.26594 21.5467 1.10012 18.875 1.10012V3.90012C20.0003 3.90012 20.9125 4.81234 20.9125 5.93762H23.7125ZM17.5 20.4H20.25V17.6H17.5V20.4ZM20.25 20.4C22.542 20.4 24.4 18.542 24.4 16.25H21.6C21.6 16.9956 20.9956 17.6 20.25 17.6V20.4ZM24.4 16.25V14.875H21.6V16.25H24.4ZM24.4 14.875C24.4 11.8237 21.9264 9.35006 18.875 9.35006V12.1501C20.38 12.1501 21.6 13.3701 21.6 14.875H24.4ZM18.875 9.35006C16.7912 9.35006 14.979 10.5042 14.0391 12.2014L16.4886 13.5579C16.9552 12.7154 17.85 12.1501 18.875 12.1501V9.35006ZM18.3844 17.6251C18.3844 15.878 17.6808 14.2925 16.5447 13.1411L14.5516 15.1077C15.1917 15.7565 15.5844 16.6436 15.5844 17.6251H18.3844ZM18.3844 18.4332V17.6251H15.5844V18.4332H18.3844ZM13.8241 15.6007C14.0994 15.8489 14.3232 16.1516 14.4787 16.4905L17.0235 15.3227C16.7071 14.6333 16.254 14.0216 15.6994 13.5214L13.8241 15.6007ZM13.8241 15.6007C14.0994 15.8489 14.3232 16.1517 14.4787 16.4905L17.0235 15.3226C16.7071 14.6333 16.2539 14.0216 15.6994 13.5215L13.8241 15.6007ZM13.3655 14.4585C13.3339 14.8897 13.5032 15.3112 13.8241 15.6007L15.6994 13.5215C16.0204 13.8109 16.1897 14.2325 16.158 14.6636L13.3655 14.4585ZM16.6997 5.46704C16.7546 5.54694 16.8375 5.70757 16.8375 5.93762H14.0375C14.0375 6.39902 14.2053 6.78072 14.3911 7.05137L16.6997 5.46704ZM15.6994 13.5214C14.8348 12.7416 13.4509 13.2966 13.3655 14.4585L16.158 14.6636C16.0727 15.8255 14.6888 16.3805 13.8241 15.6007L15.6994 13.5214ZM17.5 17.6C17.7884 17.6 18.0319 17.7352 18.182 17.9064C18.3227 18.0669 18.3844 18.2564 18.3844 18.4332H15.5844C15.5844 19.3288 16.2588 20.4 17.5 20.4V17.6ZM14.0391 12.2014C13.3798 13.392 14.0042 14.553 14.5516 15.1077L16.5447 13.1411C16.5193 13.1155 16.533 13.1143 16.5476 13.169C16.5561 13.2008 16.5656 13.2563 16.5588 13.3297C16.5518 13.4062 16.5285 13.4859 16.4886 13.5579L14.0391 12.2014ZM17.4659 7.40934C17.5334 7.47392 17.5674 7.53467 17.5815 7.56482C17.5944 7.59257 17.5929 7.59923 17.5876 7.57282L14.8413 8.11842C14.9125 8.47711 15.0814 9.00252 15.5291 9.43139L17.4659 7.40934Z" fill="#1F1F1F" mask="url(#path-3-inside-1_448_113)"/>
</g>
<g id="Subtract_2">
<mask id="path-5-inside-2_448_113" fill="white">
<path fill-rule="evenodd" clip-rule="evenodd" d="M1.68751 5.93762C1.68751 7.83609 3.22653 9.37511 5.125 9.37511C6.04748 9.37511 6.88508 9.01175 7.5025 8.42034C7.66042 8.26907 7.74296 8.06009 7.78557 7.84561C7.90064 7.26642 8.13211 6.72917 8.45459 6.25925C8.52005 6.16386 8.5625 6.05331 8.5625 5.93762C8.5625 4.03914 7.02348 2.50012 5.125 2.50012C3.22653 2.50012 1.68751 4.03914 1.68751 5.93762ZM8.3008 15.7978C8.53337 15.3279 8.85285 14.9086 9.23822 14.5611C9.23822 14.5611 9.23822 14.5611 9.23822 14.5611C9.23822 14.5611 9.23821 14.5611 9.23821 14.5611C8.85284 14.9086 8.53337 15.3279 8.3008 15.7978ZM7.01561 18.4332C7.01561 18.734 6.80086 19 6.5 19H3.75C2.23122 19 1.00001 17.7688 1.00001 16.25V14.875C1.00001 12.5969 2.84683 10.7501 5.125 10.7501C6.67936 10.7501 8.03293 11.6098 8.73612 12.8797C8.96555 13.294 8.78451 13.7873 8.45187 14.1244C7.56377 15.0245 7.01561 16.2608 7.01561 17.6251V18.4332Z"/>
</mask>
<path d="M8.45187 14.1244L9.44841 15.1077L8.45187 14.1244ZM9.23822 14.5611L10.1759 15.6007L9.23822 14.5611ZM9.23821 14.5611L8.30056 13.5214L9.23821 14.5611ZM7.5025 8.42034L8.47092 9.43135L7.5025 8.42034ZM5.125 10.7751C2.45333 10.7751 0.287509 8.60929 0.287509 5.93762H3.08751C3.08751 7.06289 3.99973 7.97511 5.125 7.97511V10.7751ZM8.47092 9.43135C7.60336 10.2624 6.42259 10.7751 5.125 10.7751V7.97511C5.67236 7.97511 6.1668 7.76112 6.53407 7.40932L8.47092 9.43135ZM6.41241 7.5728C6.5653 6.80321 6.87286 6.0899 7.30025 5.4671L9.60893 7.0514C9.39137 7.36844 9.23597 7.72963 9.15873 8.11841L6.41241 7.5728ZM5.125 1.10012C7.79668 1.10012 9.9625 3.26594 9.9625 5.93762H7.1625C7.1625 4.81234 6.25028 3.90012 5.125 3.90012V1.10012ZM0.287509 5.93762C0.287509 3.26594 2.45333 1.10012 5.125 1.10012V3.90012C3.99973 3.90012 3.08751 4.81234 3.08751 5.93762H0.287509ZM10.1759 15.6007C9.92025 15.8312 9.70893 16.1089 9.55553 16.4188L7.04607 15.1768C7.35782 14.5469 7.78544 13.9861 8.30057 13.5215L10.1759 15.6007ZM10.1759 15.6007C9.92025 15.8312 9.70893 16.1088 9.55553 16.4188L7.04607 15.1768C7.35781 14.5469 7.78543 13.9861 8.30056 13.5214L10.1759 15.6007ZM6.5 20.4H3.75V17.6H6.5V20.4ZM3.75 20.4C1.45802 20.4 -0.399994 18.542 -0.399994 16.25H2.40001C2.40001 16.9956 3.00442 17.6 3.75 17.6V20.4ZM-0.399994 16.25V14.875H2.40001V16.25H-0.399994ZM-0.399994 14.875C-0.399994 11.8237 2.07363 9.35006 5.125 9.35006V12.1501C3.62003 12.1501 2.40001 13.3701 2.40001 14.875H-0.399994ZM5.125 9.35006C7.20877 9.35006 9.02103 10.5042 9.96088 12.2014L7.51136 13.5579C7.04483 12.7154 6.14996 12.1501 5.125 12.1501V9.35006ZM5.61561 17.6251C5.61561 15.878 6.31923 14.2925 7.45533 13.1411L9.44841 15.1077C8.80832 15.7565 8.41561 16.6436 8.41561 17.6251H5.61561ZM5.61561 18.4332V17.6251H8.41561V18.4332H5.61561ZM9.96088 12.2014C10.6202 13.392 9.99581 14.553 9.44841 15.1077L7.45533 13.1411C7.48066 13.1155 7.46701 13.1143 7.45239 13.169C7.44385 13.2008 7.4344 13.2563 7.44115 13.3297C7.44819 13.4062 7.47153 13.4859 7.51136 13.5579L9.96088 12.2014ZM6.5 17.6C6.21158 17.6 5.96808 17.7352 5.818 17.9064C5.6773 18.0669 5.61561 18.2564 5.61561 18.4332H8.41561C8.41561 19.3288 7.74119 20.4 6.5 20.4V17.6ZM8.30057 13.5215C7.96274 13.8261 7.81149 14.2562 7.84213 14.6656L10.6343 14.4566C10.665 14.8659 10.5137 15.296 10.1759 15.6007L8.30057 13.5215ZM7.84213 14.6656C7.93262 15.8746 9.34796 16.3474 10.1759 15.6007L8.30056 13.5214C9.12847 12.7747 10.5438 13.2475 10.6343 14.4566L7.84213 14.6656ZM7.30025 5.4671C7.24544 5.54697 7.1625 5.70758 7.1625 5.93762H9.9625C9.9625 6.39903 9.79466 6.78075 9.60893 7.0514L7.30025 5.4671ZM6.53407 7.40932C6.46666 7.4739 6.43261 7.53465 6.41854 7.5648C6.4056 7.59255 6.40716 7.59921 6.41241 7.5728L9.15873 8.11841C9.08748 8.47709 8.91865 9.00249 8.47092 9.43135L6.53407 7.40932Z" fill="#1F1F1F" mask="url(#path-5-inside-2_448_113)"/>
</g>
</g>
</g>
</svg>
