<svg width="32" height="32" viewBox="0 0 32 32" fill="none" xmlns="http://www.w3.org/2000/svg">
<path d="M28.5715 22.2857V21.1429C28.5715 17.8087 27.247 14.6111 24.8894 12.2535C22.5318 9.89592 19.3342 8.57143 16 8.57143M16 8.57143C12.6659 8.57143 9.46828 9.89592 7.11068 12.2535C4.75308 14.6111 3.4286 17.8087 3.4286 21.1429V22.2857M16 8.57143V4M30.8572 22.2857H1.14288L1.87431 24.7314C2.15538 25.6767 2.7346 26.5058 3.52553 27.0949C4.31646 27.6839 5.27669 28.0015 6.26288 28H25.7372C26.7234 28.0015 27.6836 27.6839 28.4745 27.0949C29.2655 26.5058 29.8447 25.6767 30.1257 24.7314L30.8572 22.2857Z" stroke="#1F1F1F" stroke-width="1.5" stroke-linecap="round" stroke-linejoin="round"/>
</svg>
