<svg width="40" height="40" viewBox="0 0 40 40" fill="none" xmlns="http://www.w3.org/2000/svg">
<g clip-path="url(#clip0_512_851)">
<circle cx="20" cy="20" r="19.5" fill="#DAE3EA" stroke="#1F1F1F"/>
<path fill-rule="evenodd" clip-rule="evenodd" d="M23.8095 16.1906C23.8095 18.2954 22.1048 20.0002 20 20.0002C17.8952 20.0002 16.1905 18.2954 16.1905 16.1906C16.1905 14.0859 17.8952 12.3811 20 12.3811C22.1048 12.3811 23.8095 14.0859 23.8095 16.1906ZM12.381 25.7144C12.381 23.1811 17.4571 21.9049 20 21.9049C22.5429 21.9049 27.619 23.1811 27.619 25.7144V26.6668C27.619 27.1906 27.1905 27.6192 26.6667 27.6192H13.3333C12.8095 27.6192 12.381 27.1906 12.381 26.6668V25.7144Z" fill="#94A3B1"/>
</g>
<defs>
<clipPath id="clip0_512_851">
<rect width="40" height="40" fill="white"/>
</clipPath>
</defs>
</svg>
