<svg width="24" height="24" viewBox="0 0 24 24" fill="none" xmlns="http://www.w3.org/2000/svg">
<g id="Iconsax/Linear/profile2user">
<path id="Vector" d="M16.41 3.99999C18.35 3.99999 19.91 5.56999 19.91 7.49999C19.91 9.38999 18.41 10.93 16.54 11C16.4536 10.99 16.3664 10.99 16.28 11M18.34 20C19.06 19.85 19.74 19.56 20.3 19.13C21.86 17.96 21.86 16.03 20.3 14.86C19.75 14.44 19.08 14.16 18.37 14M9.16 10.87C9.06 10.86 8.94 10.86 8.83 10.87C7.6822 10.831 6.59464 10.3468 5.79763 9.51995C5.00062 8.69307 4.55674 7.58844 4.56 6.43999C4.56 3.98999 6.54 1.99999 9 1.99999C10.1762 1.97877 11.3127 2.42568 12.1595 3.2424C13.0062 4.05912 13.4938 5.17875 13.515 6.35499C13.5362 7.53123 13.0893 8.66771 12.2726 9.51444C11.4559 10.3612 10.3362 10.8488 9.16 10.87ZM4.16 14.56C1.74 16.18 1.74 18.82 4.16 20.43C6.91 22.27 11.42 22.27 14.17 20.43C16.59 18.81 16.59 16.17 14.17 14.56C11.43 12.73 6.92 12.73 4.16 14.56Z" stroke="#1F1F1F" stroke-width="1.5" stroke-linecap="round" stroke-linejoin="round"/>
</g>
</svg>
