<svg width="24" height="24" viewBox="0 0 24 24" fill="none" xmlns="http://www.w3.org/2000/svg">
<path d="M12.02 2.97021C8.70997 2.97021 6.01997 5.66021 6.01997 8.97021V11.8602C6.01997 12.4702 5.75997 13.4002 5.44997 13.9202L4.29997 15.8302C3.58997 17.0102 4.07997 18.3202 5.37997 18.7602C9.68997 20.2002 14.34 20.2002 18.65 18.7602C19.86 18.3602 20.39 16.9302 19.73 15.8302L18.58 13.9202C18.28 13.4002 18.02 12.4702 18.02 11.8602V8.97021C18.02 5.67021 15.32 2.97021 12.02 2.97021Z" stroke="#1F1F1F" stroke-width="1.5" stroke-miterlimit="10" stroke-linecap="round"/>
<path d="M13.87 3.26C12.6608 2.91559 11.3793 2.91559 10.17 3.26C10.46 2.52 11.18 2 12.02 2C12.86 2 13.58 2.52 13.87 3.26Z" stroke="#1F1F1F" stroke-width="1.5" stroke-miterlimit="10" stroke-linecap="round" stroke-linejoin="round"/>
<path d="M15.02 19.1201C15.02 20.7701 13.67 22.1201 12.02 22.1201C11.2 22.1201 10.44 21.7801 9.90002 21.2401C9.33818 20.6774 9.02181 19.9153 9.02002 19.1201" stroke="#1F1F1F" stroke-width="1.5" stroke-miterlimit="10"/>
</svg>
