<svg width="24" height="24" viewBox="0 0 24 24" fill="none" xmlns="http://www.w3.org/2000/svg">
<g id="Iconsax/Linear/setting3">
<path id="Vector" d="M9 22H15C20 22 22 20 22 15V9C22 4 20 2 15 2H9C4 2 2 4 2 9V15C2 20 4 22 9 22Z" stroke="#1F1F1F" stroke-width="1.5" stroke-linecap="round" stroke-linejoin="round"/>
<path id="Vector_2" d="M15.57 18.5V14.6M15.57 7.45V5.5M15.57 7.45C15.9114 7.45 16.2495 7.51725 16.565 7.64791C16.8804 7.77858 17.167 7.97009 17.4085 8.21152C17.6499 8.45295 17.8414 8.73958 17.9721 9.05502C18.1027 9.37047 18.17 9.70856 18.17 10.05C18.17 10.3914 18.1027 10.7295 17.9721 11.045C17.8414 11.3604 17.6499 11.647 17.4085 11.8885C17.167 12.1299 16.8804 12.3214 16.565 12.4521C16.2495 12.5827 15.9114 12.65 15.57 12.65C14.8804 12.65 14.2191 12.3761 13.7315 11.8885C13.2439 11.4009 12.97 10.7396 12.97 10.05C12.97 9.36044 13.2439 8.69912 13.7315 8.21152C14.2191 7.72393 14.8804 7.45 15.57 7.45ZM8.42999 18.5V16.55M8.42999 16.55C8.77142 16.55 9.10952 16.4827 9.42496 16.3521C9.74041 16.2214 10.027 16.0299 10.2685 15.7885C10.5099 15.547 10.7014 15.2604 10.8321 14.945C10.9627 14.6295 11.03 14.2914 11.03 13.95C11.03 13.6086 10.9627 13.2705 10.8321 12.955C10.7014 12.6396 10.5099 12.353 10.2685 12.1115C10.027 11.8701 9.74041 11.6786 9.42496 11.5479C9.10952 11.4173 8.77142 11.35 8.42999 11.35C7.74042 11.35 7.0791 11.6239 6.59151 12.1115C6.10391 12.5991 5.82999 13.2604 5.82999 13.95C5.82999 14.6396 6.10391 15.3009 6.59151 15.7885C7.0791 16.2761 7.74042 16.55 8.42999 16.55ZM8.42999 9.4V5.5" stroke="#1F1F1F" stroke-width="1.5" stroke-miterlimit="10" stroke-linecap="round" stroke-linejoin="round"/>
</g>
</svg>
