<svg width="105" height="24" viewBox="0 0 105 24" fill="none" xmlns="http://www.w3.org/2000/svg">
<g filter="url(#filter0_d_195_5314)">
<path d="M9.46289 15.957C9.82812 15.8906 10.0107 15.708 10.0107 15.4092C10.0107 15.0993 9.91113 14.7562 9.71191 14.3799C9.52376 13.9925 9.24154 13.6273 8.86523 13.2842C7.88021 12.3988 6.54655 11.9561 4.86426 11.9561C4.03418 11.9561 3.25944 12.0944 2.54004 12.3711C1.77637 11.9837 1.16764 11.3695 0.713867 10.5283C0.260091 9.68717 0.0332031 8.77962 0.0332031 7.80566C0.0332031 5.26009 1.0957 3.29557 3.2207 1.91211C5.04688 0.727865 7.29915 0.135742 9.97754 0.135742C11.9697 0.135742 13.6465 0.351562 15.0078 0.783203C16.3691 1.20378 17.4814 1.74609 18.3447 2.41016C18.5993 3.14062 18.7266 3.89876 18.7266 4.68457C18.7266 5.47038 18.6214 6.18424 18.4111 6.82617C18.2008 7.4681 17.8965 7.98275 17.498 8.37012C17.1217 8.09342 16.4411 7.8112 15.4561 7.52344C14.471 7.23568 13.5745 7.0918 12.7666 7.0918C11.9587 7.0918 11.4163 7.1416 11.1396 7.24121C10.874 7.34082 10.7412 7.49577 10.7412 7.70605C10.7412 7.80566 10.7578 7.89974 10.791 7.98828C11.1784 7.88867 11.6764 7.83887 12.2852 7.83887C14.4434 7.83887 16.2031 8.34798 17.5645 9.36621C19.1693 10.5837 19.9717 12.4098 19.9717 14.8447C19.9717 16.9919 19.1029 18.7738 17.3652 20.1904C15.4837 21.7067 12.9548 22.4648 9.77832 22.4648C8.02962 22.4648 6.51335 22.332 5.22949 22.0664C3.94564 21.8118 2.69499 21.3581 1.47754 20.7051C0.647461 19.4987 0.232422 18.2757 0.232422 17.0361C0.232422 15.7855 0.658529 14.7507 1.51074 13.9316C2.36296 13.1126 3.40885 12.7031 4.64844 12.7031C5.89909 12.7031 6.91732 12.9577 7.70312 13.4668C8.5 13.9759 9.08659 14.806 9.46289 15.957ZM35.1289 0.285156C36.457 0.285156 37.6081 0.644857 38.582 1.36426C39.556 2.08366 40.043 3.10742 40.043 4.43555V13.666C40.043 16.4772 39.1852 18.6465 37.4697 20.1738C35.7542 21.6901 33.3802 22.4482 30.3477 22.4482C27.3262 22.4482 24.9743 21.7012 23.292 20.207C21.5765 18.7129 20.7188 16.5326 20.7188 13.666V1.8291C22.0247 0.788737 23.5355 0.268555 25.251 0.268555C26.6898 0.268555 27.8298 0.650391 28.6709 1.41406C29.512 2.16667 29.9326 3.31217 29.9326 4.85059V14.5293C30.0544 14.6178 30.1927 14.6621 30.3477 14.6621C30.5137 14.6621 30.6299 14.6234 30.6963 14.5459C30.7738 14.4574 30.8125 14.2969 30.8125 14.0645V4.83398C30.8125 4.13672 30.7793 3.58333 30.7129 3.17383C30.6465 2.76432 30.5137 2.35482 30.3145 1.94531C31.6426 0.838542 33.2474 0.285156 35.1289 0.285156ZM41.2715 18.9287V2.29395C41.2715 1.71842 41.7308 1.24251 42.6494 0.866211C43.5791 0.478841 44.6693 0.285156 45.9199 0.285156C46.6283 0.285156 47.2923 0.373698 47.9121 0.550781C48.543 0.716797 49.0244 0.932617 49.3564 1.19824C49.8102 1.77376 50.2253 2.36035 50.6016 2.95801C50.9779 3.55566 51.8245 4.9502 53.1416 7.1416C53.2633 7.1416 53.374 7.10286 53.4736 7.02539C53.5732 6.94792 53.623 6.83171 53.623 6.67676C53.623 6.51074 53.4847 6.19531 53.208 5.73047L51.415 2.64258V1.72949C51.9795 1.26465 52.6657 0.904948 53.4736 0.650391C54.2816 0.395833 55.1172 0.268555 55.9805 0.268555C57.3861 0.268555 58.5205 0.523112 59.3838 1.03223C60.391 1.64095 60.8945 2.59277 60.8945 3.8877V19.6094C60.8945 20.5612 60.4408 21.2529 59.5332 21.6846C58.7585 22.0719 57.7236 22.2656 56.4287 22.2656C55.7093 22.2656 55.0065 22.1882 54.3203 22.0332C53.6452 21.8783 53.1139 21.679 52.7266 21.4355C51.9408 20.4284 51.1605 19.2995 50.3857 18.0488L48.6924 15.2266C48.3714 15.2708 48.2109 15.4424 48.2109 15.7412C48.2109 15.9294 48.3714 16.2891 48.6924 16.8203L50.7676 20.1738V21.0537C49.4837 21.8838 48.0339 22.2988 46.418 22.2988C44.8132 22.2988 43.5514 22.0055 42.6328 21.4189C41.7253 20.8324 41.2715 20.0023 41.2715 18.9287ZM62.123 18.9287V2.29395C62.123 1.71842 62.5824 1.24251 63.501 0.866211C64.4307 0.478841 65.5208 0.285156 66.7715 0.285156C67.4798 0.285156 68.1439 0.373698 68.7637 0.550781C69.3945 0.716797 69.876 0.932617 70.208 1.19824C70.6618 1.77376 71.0768 2.36035 71.4531 2.95801C71.8294 3.55566 72.6761 4.9502 73.9932 7.1416C74.1149 7.1416 74.2256 7.10286 74.3252 7.02539C74.4248 6.94792 74.4746 6.83171 74.4746 6.67676C74.4746 6.51074 74.3363 6.19531 74.0596 5.73047L72.2666 2.64258V1.72949C72.8311 1.26465 73.5173 0.904948 74.3252 0.650391C75.1331 0.395833 75.9688 0.268555 76.832 0.268555C78.2376 0.268555 79.3721 0.523112 80.2354 1.03223C81.2425 1.64095 81.7461 2.59277 81.7461 3.8877V19.6094C81.7461 20.5612 81.2923 21.2529 80.3848 21.6846C79.61 22.0719 78.5752 22.2656 77.2803 22.2656C76.5609 22.2656 75.8581 22.1882 75.1719 22.0332C74.4967 21.8783 73.9655 21.679 73.5781 21.4355C72.7923 20.4284 72.012 19.2995 71.2373 18.0488L69.5439 15.2266C69.223 15.2708 69.0625 15.4424 69.0625 15.7412C69.0625 15.9294 69.223 16.2891 69.5439 16.8203L71.6191 20.1738V21.0537C70.3353 21.8838 68.8854 22.2988 67.2695 22.2988C65.6647 22.2988 64.403 22.0055 63.4844 21.4189C62.5768 20.8324 62.123 20.0023 62.123 18.9287ZM89.6152 16.9531C89.9251 16.9531 90.0801 16.7816 90.0801 16.4385C87.6341 14.8115 85.7637 12.8138 84.4688 10.4453C83.1849 8.07682 82.4655 5.46484 82.3105 2.60938C82.8086 1.86784 83.5501 1.29785 84.5352 0.899414C85.5312 0.500977 86.555 0.301758 87.6064 0.301758C88.9899 0.301758 90.1797 0.572917 91.1758 1.11523C91.7956 2.78646 92.3047 4.38021 92.7031 5.89648C92.1608 8.28711 91.8896 9.48242 91.8896 9.48242C91.8454 9.64844 91.8232 9.80339 91.8232 9.94727C91.8232 10.3236 92.0225 10.5117 92.4209 10.5117C92.5537 10.0911 92.8636 8.81836 93.3506 6.69336C93.4723 6.15104 93.6328 5.39844 93.832 4.43555C94.0423 3.46159 94.3079 2.31608 94.6289 0.999023C95.6471 0.512044 96.8092 0.268555 98.1152 0.268555C99.6979 0.268555 100.96 0.655924 101.9 1.43066C102.841 2.19434 103.312 3.30111 103.312 4.75098C103.312 6.87598 102.714 8.94564 101.519 10.96C100.578 12.5537 99.3327 14.0423 97.7832 15.4258V20.9043C96.8646 21.4688 96.04 21.8395 95.3096 22.0166C94.5791 22.2048 93.8099 22.2988 93.002 22.2988C91.4746 22.2988 90.2738 22.0111 89.3994 21.4355C88.5251 20.86 88.0879 20.0023 88.0879 18.8623V15.9404C88.2871 16.1396 88.5417 16.361 88.8516 16.6045C89.1615 16.8369 89.416 16.9531 89.6152 16.9531Z" fill="#FFC891"/>
<path d="M9.46289 15.957L8.03715 16.4231L8.44377 17.6669L9.73122 17.4328L9.46289 15.957ZM9.71191 14.3799L8.36265 15.0352L8.37404 15.0587L8.38623 15.0817L9.71191 14.3799ZM8.86523 13.2842L9.87589 12.1757L9.86799 12.1686L8.86523 13.2842ZM2.54004 12.3711L1.86147 13.7088L2.45615 14.0105L3.07851 13.7711L2.54004 12.3711ZM3.2207 1.91211L2.40456 0.653571L2.4023 0.655043L3.2207 1.91211ZM15.0078 0.783203L14.5544 2.21309L14.565 2.21637L15.0078 0.783203ZM18.3447 2.41016L19.7612 1.91654L19.6139 1.49403L19.2593 1.22122L18.3447 2.41016ZM17.498 8.37012L16.6095 9.57859L17.6329 10.3311L18.5437 9.44561L17.498 8.37012ZM11.1396 7.24121L10.6316 5.82988L10.6222 5.83324L10.613 5.83672L11.1396 7.24121ZM10.791 7.98828L9.38652 8.51497L9.85963 9.77658L11.1646 9.44102L10.791 7.98828ZM17.5645 9.36621L18.4711 8.17115L18.4629 8.16504L17.5645 9.36621ZM17.3652 20.1904L18.3065 21.3584L18.3131 21.353L17.3652 20.1904ZM5.22949 22.0664L5.53341 20.5975L5.52123 20.595L5.22949 22.0664ZM1.47754 20.7051L0.241807 21.5554L0.447995 21.855L0.76854 22.0269L1.47754 20.7051ZM7.70312 13.4668L6.8875 14.7257L6.89554 14.7308L7.70312 13.4668ZM9.73122 17.4328C10.0883 17.3679 10.5519 17.2135 10.9344 16.8309C11.3515 16.4138 11.5107 15.8888 11.5107 15.4092H8.51074C8.51074 15.2284 8.57865 14.9441 8.81312 14.7096C8.91376 14.609 9.01317 14.5511 9.08187 14.5199C9.14842 14.4896 9.19139 14.4818 9.19456 14.4812L9.73122 17.4328ZM11.5107 15.4092C11.5107 14.7804 11.3106 14.1938 11.0376 13.6781L8.38623 15.0817C8.51164 15.3186 8.51074 15.4182 8.51074 15.4092H11.5107ZM11.0612 13.7245C10.7762 13.1378 10.3676 12.6241 9.87586 12.1757L7.8546 14.3926C8.11548 14.6305 8.27131 14.8472 8.36265 15.0352L11.0612 13.7245ZM9.86799 12.1686C8.53933 10.9743 6.81336 10.4561 4.86426 10.4561V13.4561C6.27973 13.4561 7.22109 13.8232 7.86248 14.3997L9.86799 12.1686ZM4.86426 10.4561C3.86433 10.4561 2.90562 10.6234 2.00157 10.9711L3.07851 13.7711C3.61326 13.5654 4.20403 13.4561 4.86426 13.4561V10.4561ZM3.2186 11.0334C2.75875 10.8001 2.36022 10.4208 2.03402 9.81614L-0.606281 11.2405C-0.0249327 12.3181 0.793984 13.1674 1.86147 13.7088L3.2186 11.0334ZM2.03402 9.81614C1.70061 9.19812 1.5332 8.53593 1.5332 7.80566H-1.4668C-1.4668 9.02331 -1.18043 10.1762 -0.606281 11.2405L2.03402 9.81614ZM1.5332 7.80566C1.5332 5.76501 2.34128 4.27453 4.03911 3.16918L2.4023 0.655043C-0.149874 2.31661 -1.4668 4.75517 -1.4668 7.80566H1.5332ZM4.03684 3.17065C5.56926 2.1769 7.52176 1.63574 9.97754 1.63574V-1.36426C7.07655 -1.36426 4.52449 -0.721168 2.40456 0.653573L4.03684 3.17065ZM9.97754 1.63574C11.8718 1.63574 13.3849 1.84222 14.5544 2.21305L15.4612 -0.646643C13.9081 -1.13909 12.0677 -1.36426 9.97754 -1.36426V1.63574ZM14.565 2.21637C15.8056 2.59962 16.7445 3.07163 17.4302 3.59909L19.2593 1.22122C18.2184 0.420553 16.9327 -0.192067 15.4506 -0.649961L14.565 2.21637ZM16.9283 2.90377C17.1266 3.473 17.2266 4.06411 17.2266 4.68457H20.2266C20.2266 3.73342 20.0719 2.80825 19.7612 1.91654L16.9283 2.90377ZM17.2266 4.68457C17.2266 5.33709 17.1393 5.89033 16.9857 6.35921L19.8366 7.29313C20.1036 6.47816 20.2266 5.60367 20.2266 4.68457H17.2266ZM16.9857 6.35921C16.8348 6.81972 16.6432 7.10911 16.4524 7.29463L18.5437 9.44561C19.1497 8.85638 19.5669 8.11648 19.8366 7.29313L16.9857 6.35921ZM18.3866 7.16164C17.7812 6.7165 16.8772 6.37592 15.8767 6.08362L15.0354 8.96326C16.0049 9.24648 16.4622 9.47035 16.6095 9.57859L18.3866 7.16164ZM15.8767 6.08362C14.79 5.76616 13.7492 5.5918 12.7666 5.5918V8.5918C13.3998 8.5918 14.1521 8.7052 15.0354 8.96326L15.8767 6.08362ZM12.7666 5.5918C11.9884 5.5918 11.1901 5.62881 10.6316 5.82988L11.6477 8.65254C11.6049 8.66795 11.6586 8.64421 11.8911 8.62286C12.1006 8.60363 12.3888 8.5918 12.7666 8.5918V5.5918ZM10.613 5.83672C10.3309 5.94248 9.98477 6.12596 9.70194 6.45594C9.39487 6.81419 9.24121 7.25475 9.24121 7.70605H12.2412C12.2412 7.94707 12.154 8.20502 11.9797 8.40832C11.8297 8.58335 11.6828 8.63955 11.6663 8.6457L10.613 5.83672ZM9.24121 7.70605C9.24121 7.97583 9.28684 8.24916 9.38652 8.51497L12.1955 7.4616C12.2288 7.55032 12.2412 7.6355 12.2412 7.70605H9.24121ZM11.1646 9.44102C11.3841 9.38457 11.7442 9.33887 12.2852 9.33887V6.33887C11.6086 6.33887 10.9727 6.39277 10.4175 6.53554L11.1646 9.44102ZM12.2852 9.33887C14.2076 9.33887 15.6267 9.79002 16.666 10.5674L18.4629 8.16504C16.7795 6.90594 14.6791 6.33887 12.2852 6.33887V9.33887ZM16.6579 10.5612C17.8094 11.4348 18.4717 12.7694 18.4717 14.8447H21.4717C21.4717 12.0502 20.5292 9.73251 18.471 8.17117L16.6579 10.5612ZM18.4717 14.8447C18.4717 16.5186 17.8234 17.8815 16.4174 19.0278L18.3131 21.353C20.3823 19.666 21.4717 17.4651 21.4717 14.8447H18.4717ZM16.424 19.0225C14.8828 20.2645 12.7208 20.9648 9.77832 20.9648V23.9648C13.1888 23.9648 16.0846 23.1489 18.3065 21.3584L16.424 19.0225ZM9.77832 20.9648C8.10018 20.9648 6.69051 20.8369 5.5334 20.5975L4.92558 23.5353C6.33618 23.8271 7.95906 23.9648 9.77832 23.9648V20.9648ZM5.52123 20.595C4.39099 20.371 3.28036 19.9699 2.18654 19.3832L0.76854 22.0269C2.10962 22.7462 3.50028 23.2527 4.93776 23.5378L5.52123 20.595ZM2.71327 19.8548C2.02337 18.8521 1.73242 17.9202 1.73242 17.0361H-1.26758C-1.26758 18.6312 -0.72845 20.1452 0.241807 21.5554L2.71327 19.8548ZM1.73242 17.0361C1.73242 16.1671 2.01078 15.5315 2.55012 15.0132L0.47136 12.8501C-0.693723 13.9698 -1.26758 15.4038 -1.26758 17.0361H1.73242ZM2.55012 15.0132C3.10822 14.4768 3.77546 14.2031 4.64844 14.2031V11.2031C3.04224 11.2031 1.61769 11.7485 0.47136 12.8501L2.55012 15.0132ZM4.64844 14.2031C5.70455 14.2031 6.41359 14.4186 6.88751 14.7257L8.51874 12.2079C7.42105 11.4967 6.09363 11.2031 4.64844 11.2031V14.2031ZM6.89554 14.7308C7.3266 15.0062 7.73777 15.5074 8.03715 16.4231L10.8886 15.4909C10.4354 14.1046 9.6734 12.9456 8.51071 12.2028L6.89554 14.7308ZM37.4697 20.1738L38.4631 21.2977L38.4672 21.2941L37.4697 20.1738ZM23.292 20.207L24.2881 19.0855L24.2826 19.0807L24.2772 19.0759L23.292 20.207ZM20.7188 1.8291L19.7841 0.655861L19.2188 1.10625V1.8291H20.7188ZM28.6709 1.41406L27.6626 2.52466L27.6707 2.53192L28.6709 1.41406ZM29.9326 14.5293H28.4326V15.2931L29.0504 15.7424L29.9326 14.5293ZM30.6963 14.5459L29.5674 13.5581L29.5624 13.5639L29.5574 13.5697L30.6963 14.5459ZM30.3145 1.94531L29.3542 0.792981L28.4517 1.54508L28.9656 2.60151L30.3145 1.94531ZM35.1289 1.78516C36.169 1.78516 37.0001 2.06059 37.6908 2.57081L39.4732 0.157709C38.2161 -0.77088 36.7451 -1.21484 35.1289 -1.21484V1.78516ZM37.6908 2.57081C38.2409 2.9771 38.543 3.53001 38.543 4.43555H41.543C41.543 2.68483 40.8711 1.19021 39.4732 0.157709L37.6908 2.57081ZM38.543 4.43555V13.666H41.543V4.43555H38.543ZM38.543 13.666C38.543 16.1531 37.7979 17.8733 36.4723 19.0535L38.4672 21.2941C40.5725 19.4197 41.543 16.8014 41.543 13.666H38.543ZM36.4763 19.0499C35.1137 20.2543 33.135 20.9482 30.3477 20.9482V23.9482C33.6254 23.9482 36.3948 23.1259 38.4631 21.2977L36.4763 19.0499ZM30.3477 20.9482C27.5659 20.9482 25.6135 20.2627 24.2881 19.0855L22.2959 21.3286C24.335 23.1396 27.0865 23.9482 30.3477 23.9482V20.9482ZM24.2772 19.0759C22.9704 17.9378 22.2188 16.2203 22.2188 13.666H19.2188C19.2188 16.8448 20.1826 19.488 22.3068 21.3382L24.2772 19.0759ZM22.2188 13.666V1.8291H19.2188V13.666H22.2188ZM21.6534 3.00234C22.686 2.17974 23.8649 1.76855 25.251 1.76855V-1.23145C23.206 -1.23145 21.3635 -0.602263 19.7841 0.655861L21.6534 3.00234ZM25.251 1.76855C26.4199 1.76855 27.1653 2.07309 27.6626 2.52463L29.6792 0.303491C28.4942 -0.772307 26.9596 -1.23145 25.251 -1.23145V1.76855ZM27.6707 2.53192C28.0905 2.90755 28.4326 3.57729 28.4326 4.85059H31.4326C31.4326 3.04706 30.9336 1.42578 29.6711 0.296201L27.6707 2.53192ZM28.4326 4.85059V14.5293H31.4326V4.85059H28.4326ZM29.0504 15.7424C29.4364 16.0232 29.8856 16.1621 30.3477 16.1621V13.1621C30.415 13.1621 30.4967 13.1721 30.5848 13.2003C30.6734 13.2286 30.7512 13.2699 30.8149 13.3162L29.0504 15.7424ZM30.3477 16.1621C30.6828 16.1621 31.3461 16.0927 31.8352 15.5221L29.5574 13.5697C29.7337 13.3641 29.9371 13.2593 30.085 13.21C30.2233 13.1639 30.3228 13.1621 30.3477 13.1621V16.1621ZM31.8252 15.5337C32.2858 15.0072 32.3125 14.3563 32.3125 14.0645H29.3125C29.3125 14.1061 29.3082 14.0783 29.3253 14.0072C29.3412 13.9414 29.3955 13.7546 29.5674 13.5581L31.8252 15.5337ZM32.3125 14.0645V4.83398H29.3125V14.0645H32.3125ZM32.3125 4.83398C32.3125 4.10254 32.2786 3.45798 32.1936 2.93372L29.2322 3.41393C29.28 3.70869 29.3125 4.1709 29.3125 4.83398H32.3125ZM32.1936 2.93372C32.1016 2.36648 31.9203 1.81741 31.6633 1.28911L28.9656 2.60151C29.107 2.89223 29.1914 3.16216 29.2322 3.41393L32.1936 2.93372ZM31.2747 3.09764C32.3088 2.23592 33.565 1.78516 35.1289 1.78516V-1.21484C32.9297 -1.21484 30.9764 -0.55884 29.3542 0.792981L31.2747 3.09764ZM42.6494 0.866211L43.218 2.25429L43.2263 2.25083L42.6494 0.866211ZM47.9121 0.550781L47.5 1.99307L47.5152 1.99739L47.5304 2.00139L47.9121 0.550781ZM49.3564 1.19824L50.5343 0.26951L50.4278 0.134412L50.2935 0.0269389L49.3564 1.19824ZM53.1416 7.1416L51.8559 7.9143L52.2931 8.6416H53.1416V7.1416ZM53.208 5.73047L51.9108 6.48367L51.9149 6.49071L51.9191 6.49769L53.208 5.73047ZM51.415 2.64258H49.915V3.04649L50.1179 3.39578L51.415 2.64258ZM51.415 1.72949L50.4615 0.571597L49.915 1.02161V1.72949H51.415ZM59.3838 1.03223L60.1597 -0.251517L60.1527 -0.255707L60.1458 -0.259822L59.3838 1.03223ZM59.5332 21.6846L58.8889 20.33L58.8756 20.3363L58.8624 20.3429L59.5332 21.6846ZM54.3203 22.0332L53.9848 23.4952L53.9899 23.4964L54.3203 22.0332ZM52.7266 21.4355L51.5439 22.3583L51.7057 22.5656L51.9283 22.7055L52.7266 21.4355ZM50.3857 18.0488L49.0995 18.8206L49.105 18.8297L49.1106 18.8387L50.3857 18.0488ZM48.6924 15.2266L49.9786 14.4548L49.4689 13.6053L48.4874 13.7406L48.6924 15.2266ZM48.6924 16.8203L47.4085 17.596L47.4126 17.6028L47.4169 17.6096L48.6924 16.8203ZM50.7676 20.1738H52.2676V19.7473L52.0431 19.3845L50.7676 20.1738ZM50.7676 21.0537L51.582 22.3134L52.2676 21.8701V21.0537H50.7676ZM42.6328 21.4189L41.8186 22.6787L41.8255 22.6832L42.6328 21.4189ZM42.7715 18.9287V2.29395H39.7715V18.9287H42.7715ZM42.7715 2.29395C42.7715 2.35604 42.7578 2.42288 42.7322 2.48145C42.7082 2.5364 42.6857 2.55701 42.6953 2.54704C42.7066 2.53528 42.7467 2.49782 42.8356 2.44284C42.924 2.38816 43.0484 2.32373 43.218 2.25426L42.0808 -0.521843C41.0421 -0.0963643 39.7715 0.742206 39.7715 2.29395H42.7715ZM43.2263 2.25083C43.9348 1.95563 44.821 1.78516 45.9199 1.78516V-1.21484C44.5176 -1.21484 43.2234 -0.997947 42.0725 -0.518404L43.2263 2.25083ZM45.9199 1.78516C46.5025 1.78516 47.0268 1.85785 47.5 1.99307L48.3242 -0.891505C47.5579 -1.11045 46.754 -1.21484 45.9199 -1.21484V1.78516ZM47.5304 2.00139C48.0561 2.13975 48.3146 2.28573 48.4194 2.36955L50.2935 0.0269389C49.7342 -0.420497 49.0298 -0.706154 48.2938 -0.899831L47.5304 2.00139ZM48.1785 2.12697C48.6008 2.66252 48.9851 3.20597 49.3322 3.75723L51.8709 2.15879C51.4654 1.51473 51.0196 0.885005 50.5343 0.26951L48.1785 2.12697ZM49.3322 3.75723C49.6985 4.33896 50.5364 5.71884 51.8559 7.9143L54.4273 6.3689C53.1126 4.18155 52.2572 2.77237 51.8709 2.15879L49.3322 3.75723ZM53.1416 8.6416C53.6098 8.6416 54.042 8.48362 54.3945 8.20942L52.5527 5.84136C52.6214 5.78791 52.711 5.73503 52.8204 5.69676C52.9304 5.65827 53.0403 5.6416 53.1416 5.6416V8.6416ZM54.3945 8.20942C54.9429 7.78296 55.123 7.17767 55.123 6.67676H52.123C52.123 6.5957 52.136 6.45491 52.207 6.28925C52.2818 6.11456 52.4018 5.95875 52.5527 5.84136L54.3945 8.20942ZM55.123 6.67676C55.123 6.26306 54.975 5.90019 54.893 5.71318C54.7891 5.47646 54.6513 5.22251 54.4969 4.96324L51.9191 6.49769C52.0414 6.70327 52.1111 6.83946 52.1456 6.91817C52.1625 6.95678 52.162 6.96124 52.1554 6.9385C52.1518 6.92594 52.1445 6.8986 52.1378 6.85899C52.1312 6.82037 52.123 6.75762 52.123 6.67676H55.123ZM54.5052 4.97727L52.7122 1.88937L50.1179 3.39578L51.9108 6.48367L54.5052 4.97727ZM52.915 2.64258V1.72949H49.915V2.64258H52.915ZM52.3686 2.88739C52.7629 2.56267 53.2713 2.28684 53.9244 2.08106L53.0229 -0.780279C52.0601 -0.476943 51.1961 -0.0333729 50.4615 0.571597L52.3686 2.88739ZM53.9244 2.08106C54.5837 1.87333 55.2671 1.76855 55.9805 1.76855V-1.23145C54.9672 -1.23145 53.9795 -1.08167 53.0229 -0.780279L53.9244 2.08106ZM55.9805 1.76855C57.2207 1.76855 58.0641 1.99538 58.6218 2.32428L60.1458 -0.259822C58.9769 -0.949153 57.5515 -1.23145 55.9805 -1.23145V1.76855ZM58.6079 2.31597C59.1139 2.62181 59.3945 3.05461 59.3945 3.8877H62.3945C62.3945 2.13094 61.668 0.66009 60.1597 -0.251517L58.6079 2.31597ZM59.3945 3.8877V19.6094H62.3945V3.8877H59.3945ZM59.3945 19.6094C59.3945 19.8381 59.3434 19.9531 59.3 20.0193C59.2533 20.0905 59.1479 20.2068 58.8889 20.33L60.1775 23.0392C60.826 22.7307 61.4013 22.2854 61.8084 21.6648C62.2188 21.0393 62.3945 20.3325 62.3945 19.6094H59.3945ZM58.8624 20.3429C58.3734 20.5874 57.5964 20.7656 56.4287 20.7656V23.7656C57.8508 23.7656 59.1435 23.5565 60.204 23.0262L58.8624 20.3429ZM56.4287 20.7656C55.8179 20.7656 55.226 20.7 54.6507 20.57L53.9899 23.4964C54.787 23.6763 55.6007 23.7656 56.4287 23.7656V20.7656ZM54.6558 20.5712C54.0692 20.4366 53.7164 20.286 53.5248 20.1656L51.9283 22.7055C52.5114 23.072 53.2211 23.3199 53.9848 23.4952L54.6558 20.5712ZM53.9092 20.5128C53.1611 19.554 52.4114 18.4704 51.6609 17.2589L49.1106 18.8387C49.9096 20.1286 50.7204 21.3027 51.5439 22.3583L53.9092 20.5128ZM51.672 17.2771L49.9786 14.4548L47.4061 15.9983L49.0995 18.8206L51.672 17.2771ZM48.4874 13.7406C48.1141 13.7921 47.6266 13.9461 47.2359 14.3637C46.8305 14.7971 46.7109 15.3189 46.7109 15.7412H49.7109C49.7109 15.8647 49.6717 16.1513 49.4267 16.4132C49.1965 16.6592 48.9497 16.7053 48.8973 16.7125L48.4874 13.7406ZM46.7109 15.7412C46.7109 16.1723 46.869 16.556 46.9615 16.7633C47.077 17.0222 47.232 17.3038 47.4085 17.596L49.9763 16.0446C49.8318 15.8056 49.7461 15.6417 49.7011 15.5409C49.679 15.4913 49.6761 15.4776 49.6805 15.4928C49.6831 15.5016 49.6899 15.526 49.6963 15.5632C49.7026 15.5993 49.7109 15.6608 49.7109 15.7412H46.7109ZM47.4169 17.6096L49.492 20.9631L52.0431 19.3845L49.9679 16.031L47.4169 17.6096ZM49.2676 20.1738V21.0537H52.2676V20.1738H49.2676ZM49.9532 19.7941C48.9261 20.4581 47.7622 20.7988 46.418 20.7988V23.7988C48.3055 23.7988 50.0414 23.3094 51.582 22.3134L49.9532 19.7941ZM46.418 20.7988C44.9721 20.7988 44.0291 20.5308 43.4401 20.1547L41.8255 22.6832C43.0738 23.4802 44.6542 23.7988 46.418 23.7988V20.7988ZM43.4471 20.1592C42.9636 19.8467 42.7715 19.4891 42.7715 18.9287H39.7715C39.7715 20.5154 40.4869 21.818 41.8186 22.6787L43.4471 20.1592ZM63.501 0.866211L64.0696 2.25429L64.0779 2.25083L63.501 0.866211ZM68.7637 0.550781L68.3516 1.99307L68.3667 1.99739L68.3819 2.00139L68.7637 0.550781ZM70.208 1.19824L71.3859 0.26951L71.2794 0.134412L71.1451 0.0269389L70.208 1.19824ZM73.9932 7.1416L72.7075 7.9143L73.1446 8.6416H73.9932V7.1416ZM74.0596 5.73047L72.7624 6.48367L72.7665 6.49071L72.7706 6.49769L74.0596 5.73047ZM72.2666 2.64258H70.7666V3.04649L70.9694 3.39578L72.2666 2.64258ZM72.2666 1.72949L71.313 0.571597L70.7666 1.02161V1.72949H72.2666ZM80.2354 1.03223L81.0112 -0.251517L81.0043 -0.255707L80.9973 -0.259822L80.2354 1.03223ZM80.3848 21.6846L79.7405 20.33L79.7272 20.3363L79.7139 20.3429L80.3848 21.6846ZM75.1719 22.0332L74.8363 23.4952L74.8415 23.4964L75.1719 22.0332ZM73.5781 21.4355L72.3955 22.3583L72.5572 22.5656L72.7799 22.7055L73.5781 21.4355ZM71.2373 18.0488L69.9511 18.8206L69.9565 18.8297L69.9622 18.8387L71.2373 18.0488ZM69.5439 15.2266L70.8302 14.4548L70.3204 13.6053L69.339 13.7406L69.5439 15.2266ZM69.5439 16.8203L68.2601 17.596L68.2642 17.6028L68.2684 17.6096L69.5439 16.8203ZM71.6191 20.1738H73.1191V19.7473L72.8947 19.3845L71.6191 20.1738ZM71.6191 21.0537L72.4336 22.3134L73.1191 21.8701V21.0537H71.6191ZM63.4844 21.4189L62.6701 22.6787L62.6771 22.6832L63.4844 21.4189ZM63.623 18.9287V2.29395H60.623V18.9287H63.623ZM63.623 2.29395C63.623 2.35604 63.6093 2.42288 63.5837 2.48145C63.5597 2.5364 63.5372 2.55701 63.5468 2.54704C63.5582 2.53528 63.5982 2.49782 63.6871 2.44284C63.7755 2.38816 63.9 2.32373 64.0696 2.25426L62.9324 -0.521843C61.8937 -0.0963643 60.623 0.742206 60.623 2.29395H63.623ZM64.0779 2.25083C64.7864 1.95563 65.6725 1.78516 66.7715 1.78516V-1.21484C65.3691 -1.21484 64.075 -0.997947 62.9241 -0.518404L64.0779 2.25083ZM66.7715 1.78516C67.3541 1.78516 67.8783 1.85785 68.3516 1.99307L69.1758 -0.891505C68.4094 -1.11045 67.6056 -1.21484 66.7715 -1.21484V1.78516ZM68.3819 2.00139C68.9077 2.13975 69.1662 2.28573 69.271 2.36955L71.1451 0.0269389C70.5858 -0.420497 69.8814 -0.706154 69.1454 -0.899831L68.3819 2.00139ZM69.0301 2.12697C69.4524 2.66252 69.8367 3.20597 70.1838 3.75723L72.7225 2.15879C72.317 1.51473 71.8712 0.885005 71.3859 0.26951L69.0301 2.12697ZM70.1838 3.75723C70.5501 4.33896 71.388 5.71884 72.7075 7.9143L75.2788 6.3689C73.9642 4.18155 73.1088 2.77237 72.7225 2.15879L70.1838 3.75723ZM73.9932 8.6416C74.4614 8.6416 74.8936 8.48362 75.2461 8.20942L73.4043 5.84136C73.473 5.78791 73.5626 5.73503 73.672 5.69676C73.7819 5.65827 73.8918 5.6416 73.9932 5.6416V8.6416ZM75.2461 8.20942C75.7944 7.78296 75.9746 7.17767 75.9746 6.67676H72.9746C72.9746 6.5957 72.9875 6.45491 73.0585 6.28925C73.1334 6.11456 73.2534 5.95875 73.4043 5.84136L75.2461 8.20942ZM75.9746 6.67676C75.9746 6.26306 75.8266 5.90019 75.7445 5.71318C75.6407 5.47646 75.5028 5.22251 75.3485 4.96324L72.7706 6.49769C72.893 6.70327 72.9626 6.83946 72.9972 6.91817C73.0141 6.95678 73.0135 6.96124 73.007 6.9385C73.0034 6.92594 72.9961 6.8986 72.9894 6.85899C72.9828 6.82037 72.9746 6.75762 72.9746 6.67676H75.9746ZM75.3568 4.97727L73.5638 1.88937L70.9694 3.39578L72.7624 6.48367L75.3568 4.97727ZM73.7666 2.64258V1.72949H70.7666V2.64258H73.7666ZM73.2202 2.88739C73.6145 2.56267 74.1228 2.28684 74.776 2.08106L73.8744 -0.780279C72.9117 -0.476943 72.0476 -0.0333729 71.313 0.571597L73.2202 2.88739ZM74.776 2.08106C75.4353 1.87333 76.1187 1.76855 76.832 1.76855V-1.23145C75.8188 -1.23145 74.831 -1.08167 73.8744 -0.780279L74.776 2.08106ZM76.832 1.76855C78.0722 1.76855 78.9157 1.99538 79.4734 2.32428L80.9973 -0.259822C79.8285 -0.949153 78.403 -1.23145 76.832 -1.23145V1.76855ZM79.4595 2.31597C79.9655 2.62181 80.2461 3.05461 80.2461 3.8877H83.2461C83.2461 2.13094 82.5195 0.66009 81.0112 -0.251517L79.4595 2.31597ZM80.2461 3.8877V19.6094H83.2461V3.8877H80.2461ZM80.2461 19.6094C80.2461 19.8381 80.195 19.9531 80.1515 20.0193C80.1049 20.0905 79.9995 20.2068 79.7405 20.33L81.029 23.0392C81.6776 22.7307 82.2529 22.2854 82.66 21.6648C83.0703 21.0393 83.2461 20.3325 83.2461 19.6094H80.2461ZM79.7139 20.3429C79.225 20.5874 78.448 20.7656 77.2803 20.7656V23.7656C78.7024 23.7656 79.9951 23.5565 81.0556 23.0262L79.7139 20.3429ZM77.2803 20.7656C76.6695 20.7656 76.0776 20.7 75.5023 20.57L74.8415 23.4964C75.6385 23.6763 76.4522 23.7656 77.2803 23.7656V20.7656ZM75.5074 20.5712C74.9208 20.4366 74.568 20.286 74.3764 20.1656L72.7799 22.7055C73.363 23.072 74.0727 23.3199 74.8363 23.4952L75.5074 20.5712ZM74.7607 20.5128C74.0127 19.554 73.2629 18.4704 72.5125 17.2589L69.9622 18.8387C70.7612 20.1286 71.572 21.3027 72.3955 22.3583L74.7607 20.5128ZM72.5235 17.2771L70.8302 14.4548L68.2577 15.9983L69.9511 18.8206L72.5235 17.2771ZM69.339 13.7406C68.9657 13.7921 68.4781 13.9461 68.0875 14.3637C67.682 14.7971 67.5625 15.3189 67.5625 15.7412H70.5625C70.5625 15.8647 70.5232 16.1513 70.2783 16.4132C70.0481 16.6592 69.8013 16.7053 69.7489 16.7125L69.339 13.7406ZM67.5625 15.7412C67.5625 16.1723 67.7205 16.556 67.813 16.7633C67.9285 17.0222 68.0835 17.3038 68.2601 17.596L70.8278 16.0446C70.6834 15.8056 70.5977 15.6417 70.5527 15.5409C70.5305 15.4913 70.5276 15.4776 70.5321 15.4928C70.5347 15.5016 70.5414 15.526 70.5479 15.5632C70.5542 15.5993 70.5625 15.6608 70.5625 15.7412H67.5625ZM68.2684 17.6096L70.3436 20.9631L72.8947 19.3845L70.8195 16.031L68.2684 17.6096ZM70.1191 20.1738V21.0537H73.1191V20.1738H70.1191ZM70.8047 19.7941C69.7776 20.4581 68.6137 20.7988 67.2695 20.7988V23.7988C69.1571 23.7988 70.8929 23.3094 72.4336 22.3134L70.8047 19.7941ZM67.2695 20.7988C65.8236 20.7988 64.8807 20.5308 64.2917 20.1547L62.6771 22.6832C63.9253 23.4802 65.5058 23.7988 67.2695 23.7988V20.7988ZM64.2986 20.1592C63.8152 19.8467 63.623 19.4891 63.623 18.9287H60.623C60.623 20.5154 61.3384 21.818 62.6701 22.6787L64.2986 20.1592ZM90.0801 16.4385H91.5801V15.6347L90.9108 15.1895L90.0801 16.4385ZM84.4688 10.4453L83.15 11.1601L83.1526 11.1649L84.4688 10.4453ZM82.3105 2.60938L81.0653 1.77304L80.7856 2.1896L80.8128 2.69065L82.3105 2.60938ZM84.5352 0.899414L83.9781 -0.493311L83.9727 -0.491136L84.5352 0.899414ZM91.1758 1.11523L92.5822 0.593656L92.3867 0.0666177L91.893 -0.202168L91.1758 1.11523ZM92.7031 5.89648L94.166 6.22833L94.2472 5.87032L94.1539 5.51527L92.7031 5.89648ZM91.8896 9.48242L93.339 9.86892L93.3463 9.84172L93.3525 9.81427L91.8896 9.48242ZM92.4209 10.5117V12.0117H93.5202L93.8513 10.9634L92.4209 10.5117ZM93.3506 6.69336L94.8127 7.02843L94.8142 7.02192L93.3506 6.69336ZM93.832 4.43555L92.3658 4.11897L92.3631 4.13164L93.832 4.43555ZM94.6289 0.999023L93.9817 -0.354178L93.34 -0.0472591L93.1716 0.643871L94.6289 0.999023ZM101.9 1.43066L100.947 2.58859L100.955 2.59525L101.9 1.43066ZM101.519 10.96L100.229 10.1945L100.227 10.1975L101.519 10.96ZM97.7832 15.4258L96.7842 14.3069L96.2832 14.7542V15.4258H97.7832ZM97.7832 20.9043L98.5685 22.1823L99.2832 21.7432V20.9043H97.7832ZM95.3096 22.0166L94.9562 20.5588L94.9458 20.5613L94.9354 20.564L95.3096 22.0166ZM89.3994 21.4355L88.5747 22.6885L89.3994 21.4355ZM88.0879 15.9404L89.1486 14.8798L86.5879 12.3191V15.9404H88.0879ZM88.8516 16.6045L87.9248 17.784L87.9381 17.7944L87.9516 17.8045L88.8516 16.6045ZM89.6152 18.4531C90.043 18.4531 90.6274 18.3277 91.077 17.8299C91.5005 17.3611 91.5801 16.8057 91.5801 16.4385H88.5801C88.5801 16.4144 88.5822 16.1163 88.8507 15.819C89.1454 15.4928 89.4973 15.4531 89.6152 15.4531V18.4531ZM90.9108 15.1895C88.6489 13.685 86.9532 11.8626 85.7849 9.72574L83.1526 11.1649C84.5742 13.765 86.6193 15.9381 89.2493 17.6874L90.9108 15.1895ZM85.7875 9.73049C84.6159 7.56922 83.952 5.17566 83.8083 2.5281L80.8128 2.69065C80.979 5.75402 81.7538 8.58442 83.15 11.1601L85.7875 9.73049ZM83.5558 3.44571C83.8571 2.99704 84.3368 2.59773 85.0976 2.28996L83.9727 -0.491136C82.7635 -0.00202417 81.7601 0.738633 81.0653 1.77304L83.5558 3.44571ZM85.0922 2.29213C85.9148 1.96309 86.7498 1.80176 87.6064 1.80176V-1.19824C86.3603 -1.19824 85.1477 -0.961136 83.9781 -0.493301L85.0922 2.29213ZM87.6064 1.80176C88.7939 1.80176 89.7259 2.03378 90.4585 2.43264L91.893 -0.202168C90.6334 -0.887945 89.1859 -1.19824 87.6064 -1.19824V1.80176ZM89.7694 1.63681C90.3744 3.2681 90.868 4.81481 91.2524 6.2777L94.1539 5.51527C93.7414 3.9456 93.2168 2.30481 92.5822 0.593656L89.7694 1.63681ZM91.2403 5.56464C91.2392 5.56931 91.2382 5.57397 91.2371 5.57863C91.2361 5.58329 91.235 5.58795 91.2339 5.5926C91.2315 5.60327 91.23 5.60981 91.2276 5.62045C91.2251 5.63178 91.2176 5.66464 91.2151 5.67582C91.213 5.68475 91.2046 5.72198 91.2026 5.73076C91.1906 5.78367 91.2022 5.73249 91.1902 5.78526C91.1828 5.81813 91.1731 5.86066 91.1658 5.89294C91.1634 5.90382 91.1622 5.90875 91.1598 5.91959C91.1564 5.9345 91.1571 5.93125 91.1538 5.94613C91.1519 5.95414 91.1496 5.96458 91.1478 5.97255C91.1468 5.97695 91.1458 5.98134 91.1448 5.98573C91.1438 5.99011 91.1428 5.9945 91.1418 5.99887C91.1415 6.00012 91.1361 6.02387 91.1358 6.02508C91.1319 6.0425 91.1339 6.0338 91.1299 6.05118C91.1221 6.08585 91.126 6.06853 91.1181 6.10305C91.1115 6.13239 91.1131 6.1253 91.1065 6.15449C91.1001 6.18269 91.1013 6.17743 91.0949 6.20548C91.0645 6.33963 91.0795 6.27328 91.0496 6.40509C91.0349 6.47017 91.0422 6.43777 91.0276 6.50227C91.0257 6.51074 91.0241 6.51786 91.0221 6.52629C91.0204 6.53384 91.0184 6.54269 91.0167 6.5502C91.0132 6.56581 91.0095 6.58223 91.0059 6.5977C90.9994 6.62643 90.9698 6.7569 90.9638 6.7833C90.9595 6.80241 90.963 6.78693 90.9587 6.806C90.9554 6.82058 90.9569 6.81406 90.9536 6.8286C90.9527 6.83236 90.9519 6.83611 90.951 6.83986C90.9502 6.84361 90.9493 6.84735 90.9485 6.85109C90.9457 6.86314 90.9461 6.86146 90.9434 6.87347C90.9425 6.87719 90.9417 6.88091 90.9408 6.88462C90.94 6.88833 90.9392 6.89204 90.9383 6.89574C90.9375 6.89944 90.9367 6.90314 90.9358 6.90683C90.935 6.91053 90.9341 6.91422 90.9333 6.9179C90.9321 6.92309 90.9295 6.9348 90.9283 6.93995C90.9275 6.94362 90.9266 6.94728 90.9258 6.95094C90.925 6.95459 90.9241 6.95825 90.9233 6.96189C90.9086 7.02679 90.8986 7.07092 90.8844 7.13349C90.8675 7.20796 90.8634 7.22593 90.8471 7.29807C90.841 7.32485 90.844 7.3115 90.838 7.33813C90.8295 7.3755 90.8374 7.34052 90.829 7.37774C90.8143 7.44252 90.8259 7.39146 90.8113 7.45566C90.7997 7.50672 90.8055 7.48135 90.794 7.53183C90.7767 7.60827 90.7944 7.53038 90.7772 7.60624C90.7751 7.61508 90.775 7.61577 90.773 7.62457C90.7702 7.63674 90.7716 7.63066 90.7689 7.64279C90.7676 7.64833 90.7619 7.67352 90.7607 7.67891C90.7499 7.72646 90.7552 7.70284 90.7446 7.74982C90.7096 7.90383 90.717 7.87129 90.6842 8.01596C90.6453 8.18727 90.6669 8.09212 90.6302 8.25409C90.5903 8.42988 90.6203 8.29775 90.5825 8.4642C90.5817 8.46795 90.5778 8.4849 90.577 8.4885C90.5766 8.49051 90.5761 8.49251 90.5756 8.4945C90.5752 8.4965 90.5747 8.49849 90.5743 8.50048C90.5738 8.50247 90.5734 8.50445 90.5729 8.50643C90.5725 8.50841 90.572 8.51039 90.5716 8.51236C90.5712 8.51433 90.5707 8.51629 90.5703 8.51825C90.5698 8.52021 90.5694 8.52217 90.5689 8.52412C90.5685 8.52607 90.568 8.52802 90.5676 8.52996C90.5672 8.5319 90.5667 8.53384 90.5663 8.53578C90.562 8.55464 90.5653 8.54004 90.5611 8.55876C90.5602 8.56269 90.5568 8.57751 90.556 8.5813C90.5555 8.58316 90.5551 8.58502 90.5547 8.58687C90.5543 8.58872 90.5539 8.59056 90.5534 8.59241C90.553 8.59425 90.5526 8.59609 90.5522 8.59792C90.5518 8.59975 90.5514 8.60158 90.5509 8.6034C90.5469 8.6212 90.55 8.60742 90.546 8.62507C90.544 8.63382 90.5456 8.62703 90.5436 8.63574C90.5426 8.64013 90.5422 8.64195 90.5412 8.6463C90.5299 8.69614 90.4805 8.91397 90.4777 8.92645C90.4413 9.08682 90.4674 8.97153 90.4395 9.09455C90.4356 9.11184 90.4318 9.12861 90.43 9.13657C90.429 9.14098 90.4281 9.145 90.4276 9.14707C90.4271 9.14911 90.4273 9.14824 90.427 9.1497C90.4269 9.14998 90.4269 9.15022 90.4269 9.15036C90.4269 9.15039 90.4268 9.15042 90.4268 9.15045C90.4268 9.15048 90.4268 9.1505 90.4268 9.15052C90.4268 9.15054 90.4268 9.15055 90.4268 9.15056C90.4268 9.15057 90.4268 9.15058 91.8896 9.48242C93.3525 9.81427 93.3525 9.81426 93.3525 9.81425C93.3525 9.81425 93.3525 9.81423 93.3525 9.81421C93.3525 9.81421 93.3525 9.81409 93.3525 9.81405C93.3525 9.81401 93.3526 9.81385 93.3526 9.81378C93.3526 9.81372 93.3526 9.81366 93.3526 9.8136C93.3526 9.81353 93.3527 9.81347 93.3527 9.81339C93.3529 9.81251 93.3527 9.81332 93.3529 9.8123C93.353 9.812 93.353 9.81192 93.3531 9.81159C93.3531 9.81146 93.3531 9.81133 93.3532 9.81119C93.3532 9.81105 93.3532 9.81091 93.3533 9.81077C93.3533 9.81062 93.3533 9.81047 93.3534 9.81032C93.3534 9.81016 93.3534 9.81 93.3535 9.80984C93.3535 9.80957 93.3537 9.8091 93.3537 9.8088C93.3539 9.80799 93.354 9.80734 93.3543 9.80639C93.3545 9.80544 93.3553 9.8018 93.3557 9.80026C93.3558 9.79973 93.3572 9.7935 93.3574 9.79238C93.359 9.78541 93.3579 9.79031 93.3596 9.78275C93.3598 9.78206 93.3645 9.76126 93.3652 9.75824C93.3766 9.70791 93.3675 9.74786 93.3811 9.6882C93.3933 9.63421 93.389 9.65348 93.4033 9.59015C93.41 9.56068 93.4031 9.59131 93.4099 9.56126C93.4102 9.56002 93.4104 9.55877 93.4107 9.55752C93.411 9.55627 93.4113 9.55502 93.4116 9.55376C93.4123 9.55056 93.4126 9.54939 93.4133 9.54615C93.4145 9.54081 93.4156 9.5361 93.4168 9.53061C93.4181 9.52506 93.4192 9.52034 93.4205 9.51464C93.4208 9.51329 93.4211 9.51193 93.4214 9.51057C93.4217 9.50922 93.422 9.50785 93.4223 9.50648C93.4226 9.50512 93.4229 9.50374 93.4232 9.50237C93.4235 9.50099 93.4239 9.49961 93.4242 9.49822C93.4255 9.49252 93.4267 9.48721 93.428 9.48137C93.4285 9.47898 93.4313 9.46662 93.4319 9.46408C93.4319 9.46397 93.4399 9.42888 93.4401 9.42818C93.4404 9.42665 93.4408 9.42512 93.4411 9.42357C93.4415 9.42203 93.4418 9.42049 93.4422 9.41894C93.4433 9.41413 93.4432 9.41442 93.4443 9.40958C93.445 9.40641 93.4457 9.40332 93.4464 9.40012C93.4468 9.39869 93.4483 9.392 93.4486 9.39054C93.4591 9.34428 93.4469 9.39799 93.4575 9.35114C93.4577 9.35058 93.4597 9.34162 93.4598 9.34102C93.4603 9.3388 93.4616 9.33304 93.4622 9.33079C93.4625 9.32907 93.4629 9.32735 93.4633 9.32563C93.4637 9.32391 93.4641 9.32218 93.4645 9.32045C93.4649 9.31871 93.4653 9.31698 93.4657 9.31524C93.4661 9.31349 93.4665 9.31175 93.4669 9.31C93.4766 9.267 93.5376 8.99814 93.5558 8.91778C93.5731 8.84197 93.5643 8.88037 93.5821 8.80222C93.5831 8.79745 93.6083 8.68676 93.6099 8.67966C93.612 8.67029 93.6113 8.67325 93.6135 8.66384C93.6141 8.6612 93.6147 8.65855 93.6153 8.65589C93.6159 8.65324 93.6165 8.65058 93.6171 8.64792C93.6177 8.64526 93.6183 8.64259 93.6189 8.63992C93.6195 8.63725 93.6201 8.63457 93.6207 8.63189C93.6244 8.61543 93.6206 8.63224 93.6244 8.61575C93.625 8.61305 93.6256 8.61034 93.6262 8.60763C93.6268 8.60493 93.6274 8.60221 93.6281 8.59949C93.6287 8.59678 93.6293 8.59406 93.6299 8.59133C93.6305 8.5886 93.6311 8.58587 93.6318 8.58313C93.6347 8.57034 93.6363 8.56302 93.6393 8.55009C93.6441 8.52873 93.6496 8.50461 93.6546 8.48267C93.6609 8.45473 93.6638 8.44204 93.6702 8.41351C93.6703 8.4134 93.6782 8.37853 93.6782 8.37827C93.6789 8.37532 93.6796 8.37236 93.6803 8.3694C93.6809 8.36643 93.6816 8.36346 93.6823 8.36049C93.6829 8.35752 93.6836 8.35454 93.6843 8.35156C93.685 8.34858 93.6857 8.34559 93.6863 8.3426C93.693 8.31313 93.696 8.29998 93.7028 8.26993C93.7035 8.26687 93.7042 8.2638 93.7049 8.26073C93.7056 8.25765 93.7063 8.25458 93.707 8.25149C93.7126 8.22678 93.7056 8.2577 93.7112 8.23294C93.7169 8.20807 93.714 8.22054 93.7197 8.19552C93.7288 8.15555 93.7192 8.19777 93.7283 8.15765C93.7289 8.15479 93.732 8.14145 93.7326 8.13856C93.7349 8.12868 93.7347 8.12927 93.737 8.11935C93.786 7.90327 93.7589 8.0226 93.8101 7.79718C93.8444 7.64565 93.9324 7.25767 93.9753 7.06878C94.0052 6.93674 94.0354 6.80394 94.0675 6.66257C94.0773 6.61899 94.0815 6.60079 94.0915 6.55663C94.0925 6.55218 94.0935 6.54773 94.0945 6.54327C94.0955 6.53881 94.0965 6.53434 94.0975 6.52988C94.0986 6.52541 94.0996 6.52094 94.1006 6.51646C94.1016 6.51198 94.1026 6.5075 94.1036 6.50301C94.1043 6.50013 94.1091 6.47895 94.1098 6.47604C94.1108 6.47153 94.1118 6.46702 94.1128 6.46251C94.1139 6.45799 94.1149 6.45347 94.1159 6.44895C94.1184 6.4379 94.1381 6.35115 94.1407 6.33952C94.1473 6.31071 94.1593 6.25772 94.166 6.22833L91.2403 5.56464ZM90.4403 9.09593C90.3687 9.36442 90.3232 9.65055 90.3232 9.94727H93.3232C93.3232 9.95623 93.3221 9.93245 93.339 9.86892L90.4403 9.09593ZM90.3232 9.94727C90.3232 10.3892 90.4444 10.9905 90.9427 11.4611C91.425 11.9166 92.0112 12.0117 92.4209 12.0117V9.01172C92.4322 9.01172 92.7196 9.01279 93.0026 9.28009C93.3017 9.56257 93.3232 9.8816 93.3232 9.94727H90.3232ZM93.8513 10.9634C94.007 10.4703 94.3326 9.12323 94.8127 7.02842L91.8885 6.3583C91.3946 8.51349 91.1004 9.712 90.9905 10.06L93.8513 10.9634ZM94.8142 7.02192C94.9386 6.46747 95.1011 5.70537 95.3009 4.73946L92.3631 4.13164C92.1646 5.09151 92.006 5.83461 91.887 6.3648L94.8142 7.02192ZM95.2982 4.75212C95.505 3.7947 95.7674 2.66263 96.0863 1.35418L93.1716 0.643871C92.8485 1.96953 92.5797 3.12848 92.3658 4.11898L95.2982 4.75212ZM95.2761 2.35222C96.0628 1.97597 96.9981 1.76855 98.1152 1.76855V-1.23145C96.6204 -1.23145 95.2315 -0.951877 93.9817 -0.354178L95.2761 2.35222ZM98.1152 1.76855C99.4554 1.76855 100.346 2.0938 100.947 2.58856L102.854 0.272769C101.573 -0.781951 99.9405 -1.23145 98.1152 -1.23145V1.76855ZM100.955 2.59525C101.475 3.01731 101.812 3.65449 101.812 4.75098H104.812C104.812 2.94772 104.207 1.37136 102.846 0.266074L100.955 2.59525ZM101.812 4.75098C101.812 6.57959 101.301 8.38745 100.229 10.1945L102.809 11.7254C104.127 9.50382 104.812 7.17237 104.812 4.75098H101.812ZM100.227 10.1975C99.3736 11.6428 98.2322 13.014 96.7842 14.3069L98.7822 16.5447C100.433 15.0707 101.782 13.4646 102.81 11.7225L100.227 10.1975ZM96.2832 15.4258V20.9043H99.2832V15.4258H96.2832ZM96.9979 19.6263C96.1601 20.1411 95.4837 20.4309 94.9562 20.5588L95.663 23.4744C96.5964 23.2481 97.5691 22.7964 98.5685 22.1823L96.9979 19.6263ZM94.9354 20.564C94.3355 20.7185 93.6926 20.7988 93.002 20.7988V23.7988C93.9272 23.7988 94.8227 23.691 95.6837 23.4692L94.9354 20.564ZM93.002 20.7988C91.6403 20.7988 90.7653 20.5388 90.2241 20.1826L88.5747 22.6885C89.7822 23.4833 91.3089 23.7988 93.002 23.7988V20.7988ZM90.2241 20.1826C89.814 19.9126 89.5879 19.5509 89.5879 18.8623H86.5879C86.5879 20.4536 87.2362 21.8074 88.5747 22.6885L90.2241 20.1826ZM89.5879 18.8623V15.9404H86.5879V18.8623H89.5879ZM87.0272 17.0011C87.2816 17.2555 87.5849 17.5169 87.9248 17.784L89.7783 15.425C89.4984 15.2051 89.2926 15.0238 89.1486 14.8798L87.0272 17.0011ZM87.9516 17.8045C88.3131 18.0757 88.9032 18.4531 89.6152 18.4531V15.4531C89.7106 15.4531 89.7834 15.4669 89.8276 15.4782C89.8716 15.4895 89.8957 15.5005 89.8978 15.5014C89.9004 15.5026 89.8886 15.4974 89.8618 15.4808C89.8354 15.4645 89.7988 15.4399 89.7516 15.4045L87.9516 17.8045Z" fill="black"/>
</g>
<defs>
<filter id="filter0_d_195_5314" x="0.0332031" y="0.135742" width="104.278" height="23.3291" filterUnits="userSpaceOnUse" color-interpolation-filters="sRGB">
<feFlood flood-opacity="0" result="BackgroundImageFix"/>
<feColorMatrix in="SourceAlpha" type="matrix" values="0 0 0 0 0 0 0 0 0 0 0 0 0 0 0 0 0 0 127 0" result="hardAlpha"/>
<feOffset dx="1" dy="1"/>
<feComposite in2="hardAlpha" operator="out"/>
<feColorMatrix type="matrix" values="0 0 0 0 0 0 0 0 0 0 0 0 0 0 0 0 0 0 1 0"/>
<feBlend mode="normal" in2="BackgroundImageFix" result="effect1_dropShadow_195_5314"/>
<feBlend mode="normal" in="SourceGraphic" in2="effect1_dropShadow_195_5314" result="shape"/>
</filter>
</defs>
</svg>
