<svg width="122" height="122" viewBox="0 0 122 122" fill="none" xmlns="http://www.w3.org/2000/svg">
<path id="Union" d="M61 121C51.5836 121 43.8391 113.842 42.9113 104.67C35.7699 110.499 25.232 110.085 18.5736 103.426C11.9152 96.768 11.5007 86.2301 17.3301 79.0887C8.1583 78.1609 1 70.4164 1 61C1 51.5836 8.15832 43.8391 17.3301 42.9113C11.5007 35.7699 11.9152 25.232 18.5736 18.5736C25.232 11.9152 35.7699 11.5007 42.9113 17.33C43.8391 8.15829 51.5836 1 61 1C70.4164 1 78.161 8.15829 79.0887 17.33C86.2302 11.5007 96.768 11.9152 103.426 18.5736C110.085 25.232 110.499 35.7699 104.67 42.9113C113.842 43.8391 121 51.5836 121 61C121 70.4164 113.842 78.1609 104.67 79.0887C110.499 86.2301 110.085 96.768 103.426 103.426C96.768 110.085 86.2302 110.499 79.0887 104.67C78.161 113.842 70.4165 121 61 121Z" fill="#FFEFDF" stroke="#1F1F1F" stroke-width="1.5" stroke-linecap="round"/>
</svg>
