<svg width="42" height="42" viewBox="0 0 42 42" fill="none" xmlns="http://www.w3.org/2000/svg">
<g filter="url(#filter0_d_512_863)">
<circle cx="20" cy="20" r="20" fill="url(#paint0_radial_512_863)"/>
<circle cx="20" cy="20" r="19.5" stroke="#1F1F1F"/>
</g>
<g clip-path="url(#clip0_512_863)">
<path d="M18.1053 21.9085C18.1053 20.4463 18.7227 19.1325 19.8427 18.2088C20.3907 17.7565 21.0344 17.4143 21.7499 17.1822L24.3823 8H20.5917L17.1194 19.367L13.8361 12.0491H10L15.6452 25.9838H19.2276L19.4239 25.2994C18.6533 24.5145 18.1077 23.4376 18.1077 21.9085H18.1053Z" fill="white"/>
<path d="M24.7867 23.2773C23.449 22.7891 22.6354 22.4541 22.6354 21.9084C22.6354 21.425 23.2264 21.0733 24.0401 21.0733C24.2937 21.0733 25.1553 21.169 25.6243 22.4134L25.8756 23.0763L29.1086 21.9037L28.8573 21.2264C27.9312 18.7281 25.6865 17.8187 24.0401 17.7996C23.047 17.7996 22.1591 17.9982 21.4149 18.3476C19.9599 19.032 19.0625 20.3099 19.0625 21.9084C19.0625 22.8681 19.3234 23.6075 19.7398 24.1914C20.618 25.4286 22.1902 25.9671 23.4466 26.3954C24.7532 26.8405 25.5453 27.1516 25.5453 27.6877C25.5453 28.6593 24.2172 28.7406 23.7984 28.7406C23.3987 28.7311 22.4008 28.5492 21.6183 27.0822L21.2737 26.4337L18.2417 28.1376L18.6126 28.7693C19.8211 30.8202 21.7092 31.9976 23.7888 31.9976C23.8056 31.9976 23.8223 31.9976 23.8391 31.9976C25.531 31.9976 26.9859 31.4759 27.9384 30.5282C28.7018 29.7696 29.1062 28.7861 29.1062 27.6877C29.1062 24.8519 26.6126 23.9402 24.7891 23.2749L24.7867 23.2773Z" fill="white"/>
</g>
<defs>
<filter id="filter0_d_512_863" x="0" y="0" width="41.5" height="41.5" filterUnits="userSpaceOnUse" color-interpolation-filters="sRGB">
<feFlood flood-opacity="0" result="BackgroundImageFix"/>
<feColorMatrix in="SourceAlpha" type="matrix" values="0 0 0 0 0 0 0 0 0 0 0 0 0 0 0 0 0 0 127 0" result="hardAlpha"/>
<feOffset dx="1.5" dy="1.5"/>
<feComposite in2="hardAlpha" operator="out"/>
<feColorMatrix type="matrix" values="0 0 0 0 0.121569 0 0 0 0 0.121569 0 0 0 0 0.121569 0 0 0 1 0"/>
<feBlend mode="normal" in2="BackgroundImageFix" result="effect1_dropShadow_512_863"/>
<feBlend mode="normal" in="SourceGraphic" in2="effect1_dropShadow_512_863" result="shape"/>
</filter>
<radialGradient id="paint0_radial_512_863" cx="0" cy="0" r="1" gradientUnits="userSpaceOnUse" gradientTransform="translate(20 20) rotate(90) scale(20)">
<stop offset="0.213542" stop-color="#6ADCA3"/>
<stop offset="1" stop-color="#B9F4D6"/>
</radialGradient>
<clipPath id="clip0_512_863">
<rect width="19.1086" height="24" fill="white" transform="translate(10 8)"/>
</clipPath>
</defs>
</svg>
